<svg width="4298" height="500" viewBox="0 0 4298 500" fill="none" xmlns="http://www.w3.org/2000/svg">
<path d="M642.28 247.6C642.28 233.093 644.773 218.7 649.76 204.42C654.973 190.14 662.453 177.22 672.2 165.66C681.947 153.873 693.96 144.58 708.24 137.78C722.52 130.753 738.727 127.24 756.86 127.24C778.167 127.24 796.527 132.227 811.94 142.2C827.353 151.947 838.687 164.527 845.94 179.94L827.24 191.5C822.027 180.847 815.453 172.46 807.52 166.34C799.587 159.993 791.087 155.46 782.02 152.74C773.18 150.02 764.34 148.66 755.5 148.66C740.993 148.66 728.187 151.607 717.08 157.5C705.973 163.167 696.567 170.873 688.86 180.62C681.38 190.367 675.713 201.133 671.86 212.92C668.007 224.707 666.08 236.72 666.08 248.96C666.08 262.333 668.347 275.14 672.88 287.38C677.413 299.393 683.76 310.16 691.92 319.68C700.08 329.2 709.6 336.793 720.48 342.46C731.587 347.9 743.6 350.62 756.52 350.62C765.587 350.62 774.88 349.033 784.4 345.86C793.92 342.687 802.76 337.813 810.92 331.24C819.08 324.667 825.767 316.167 830.98 305.74L850.7 315.94C845.487 327.953 837.667 338.153 827.24 346.54C817.04 354.927 805.48 361.273 792.56 365.58C779.867 369.887 767.4 372.04 755.16 372.04C738.613 372.04 723.427 368.527 709.6 361.5C695.773 354.247 683.76 344.727 673.56 332.94C663.587 320.927 655.88 307.553 650.44 292.82C645 277.86 642.28 262.787 642.28 247.6ZM872.306 319C872.306 308.12 875.479 298.713 881.826 290.78C888.173 282.62 896.899 276.273 908.006 271.74C919.339 267.207 932.373 264.94 947.106 264.94C955.719 264.94 964.673 265.733 973.966 267.32C983.259 268.68 991.533 270.607 998.786 273.1V258.14C998.786 243.18 994.366 231.28 985.526 222.44C976.686 213.6 964.446 209.18 948.806 209.18C939.513 209.18 930.219 210.993 920.926 214.62C911.633 218.02 901.999 223.12 892.026 229.92L883.186 213.6C894.746 205.667 906.079 199.773 917.186 195.92C928.293 191.84 939.626 189.8 951.186 189.8C972.946 189.8 990.173 196.033 1002.87 208.5C1015.56 220.967 1021.91 238.193 1021.91 260.18V342.12C1021.91 348.24 1024.74 351.413 1030.41 351.64V370C1025.42 370.68 1021.91 370.907 1019.87 370.68C1014.2 370.453 1009.89 368.64 1006.95 365.24C1004 361.84 1002.41 358.213 1002.19 354.36L1001.85 341.44C993.913 351.64 983.599 359.573 970.906 365.24C958.213 370.68 945.293 373.4 932.146 373.4C920.586 373.4 910.273 371.02 901.206 366.26C892.139 361.273 884.999 354.7 879.786 346.54C874.799 338.153 872.306 328.973 872.306 319ZM990.966 332.6C996.179 326.48 998.786 320.813 998.786 315.6V289.76C983.146 283.64 966.826 280.58 949.826 280.58C933.279 280.58 919.906 283.867 909.706 290.44C899.506 297.013 894.406 305.967 894.406 317.3C894.406 327.047 898.146 335.887 905.626 343.82C913.333 351.753 923.986 355.72 937.586 355.72C948.693 355.72 959.006 353.567 968.526 349.26C978.273 344.953 985.753 339.4 990.966 332.6ZM1220.78 370H1197.66V271.06C1197.66 250.207 1194.49 235.02 1188.14 225.5C1182.02 215.753 1172.5 210.88 1159.58 210.88C1150.51 210.88 1141.56 213.147 1132.72 217.68C1123.88 221.987 1116.06 227.993 1109.26 235.7C1102.69 243.18 1097.93 251.793 1094.98 261.54V370H1071.86V192.86H1092.94V232.98C1099.97 220.06 1110.28 209.633 1123.88 201.7C1137.48 193.767 1152.21 189.8 1168.08 189.8C1181.23 189.8 1191.65 192.973 1199.36 199.32C1207.07 205.44 1212.51 214.28 1215.68 225.84C1219.08 237.173 1220.78 250.66 1220.78 266.3V370ZM1356.78 373.4C1342.96 373.4 1330.15 369.887 1318.36 362.86C1306.58 355.607 1297.4 346.54 1290.82 335.66V370H1270.08V121.8H1293.2V229.92C1301.14 217.907 1310.66 208.273 1321.76 201.02C1332.87 193.54 1345.79 189.8 1360.52 189.8C1372.99 189.8 1384.1 192.407 1393.84 197.62C1403.82 202.833 1412.32 209.86 1419.34 218.7C1426.37 227.313 1431.7 237.173 1435.32 248.28C1438.95 259.16 1440.76 270.38 1440.76 281.94C1440.76 298.487 1437.02 313.673 1429.54 327.5C1422.29 341.327 1412.32 352.433 1399.62 360.82C1386.93 369.207 1372.65 373.4 1356.78 373.4ZM1351.34 353C1364.26 353 1375.6 349.6 1385.34 342.8C1395.32 336 1403.14 327.273 1408.8 316.62C1414.47 305.74 1417.3 294.18 1417.3 281.94C1417.3 269.473 1414.58 257.8 1409.14 246.92C1403.93 236.04 1396.56 227.2 1387.04 220.4C1377.52 213.6 1366.53 210.2 1354.06 210.2C1340.24 210.2 1328 214.62 1317.34 223.46C1306.92 232.3 1298.87 242.613 1293.2 254.4V309.48C1294.34 317.64 1298.08 325.007 1304.42 331.58C1310.77 338.153 1318.25 343.367 1326.86 347.22C1335.48 351.073 1343.64 353 1351.34 353ZM1556.43 373.4C1539.43 373.4 1524.24 369.207 1510.87 360.82C1497.49 352.433 1486.95 341.213 1479.25 327.16C1471.54 313.107 1467.69 297.693 1467.69 280.92C1467.69 264.373 1471.43 249.187 1478.91 235.36C1486.61 221.533 1497.15 210.54 1510.53 202.38C1523.9 193.993 1539.09 189.8 1556.09 189.8C1573.54 189.8 1588.84 193.993 1601.99 202.38C1615.13 210.767 1625.33 221.873 1632.59 235.7C1640.07 249.3 1643.81 264.26 1643.81 280.58C1643.81 284.207 1643.69 287.267 1643.47 289.76H1491.83C1492.96 302.453 1496.59 313.787 1502.71 323.76C1508.83 333.507 1516.65 341.327 1526.17 347.22C1535.69 352.887 1546.11 355.72 1557.45 355.72C1569.01 355.72 1579.89 352.773 1590.09 346.88C1600.29 340.987 1607.54 333.28 1611.85 323.76L1631.91 329.2C1628.28 337.813 1622.61 345.52 1614.91 352.32C1607.43 358.893 1598.7 364.107 1588.73 367.96C1578.75 371.587 1567.99 373.4 1556.43 373.4ZM1491.15 273.1H1622.05C1621.14 260.407 1617.63 249.187 1611.51 239.44C1605.39 229.467 1597.57 221.76 1588.05 216.32C1578.53 210.653 1567.99 207.82 1556.43 207.82C1544.87 207.82 1534.33 210.653 1524.81 216.32C1515.29 221.76 1507.47 229.467 1501.35 239.44C1495.45 249.187 1492.05 260.407 1491.15 273.1ZM1767.88 213.26C1752.46 213.713 1738.86 218.02 1727.08 226.18C1715.52 234.34 1707.36 245.56 1702.6 259.84V370H1679.48V192.86H1701.24V235.36C1707.36 222.893 1715.4 212.807 1725.38 205.1C1735.58 197.393 1746.34 193.087 1757.68 192.18C1759.94 191.953 1761.87 191.84 1763.46 191.84C1765.04 191.84 1766.52 191.953 1767.88 192.18V213.26ZM1887.08 213.26C1871.66 213.713 1858.06 218.02 1846.28 226.18C1834.72 234.34 1826.56 245.56 1821.8 259.84V370H1798.68V192.86H1820.44V235.36C1826.56 222.893 1834.6 212.807 1844.58 205.1C1854.78 197.393 1865.54 193.087 1876.88 192.18C1879.14 191.953 1881.07 191.84 1882.66 191.84C1884.24 191.84 1885.72 191.953 1887.08 192.18V213.26ZM1902.93 319C1902.93 308.12 1906.1 298.713 1912.45 290.78C1918.8 282.62 1927.52 276.273 1938.63 271.74C1949.96 267.207 1963 264.94 1977.73 264.94C1986.34 264.94 1995.3 265.733 2004.59 267.32C2013.88 268.68 2022.16 270.607 2029.41 273.1V258.14C2029.41 243.18 2024.99 231.28 2016.15 222.44C2007.31 213.6 1995.07 209.18 1979.43 209.18C1970.14 209.18 1960.84 210.993 1951.55 214.62C1942.26 218.02 1932.62 223.12 1922.65 229.92L1913.81 213.6C1925.37 205.667 1936.7 199.773 1947.81 195.92C1958.92 191.84 1970.25 189.8 1981.81 189.8C2003.57 189.8 2020.8 196.033 2033.49 208.5C2046.18 220.967 2052.53 238.193 2052.53 260.18V342.12C2052.53 348.24 2055.36 351.413 2061.03 351.64V370C2056.04 370.68 2052.53 370.907 2050.49 370.68C2044.82 370.453 2040.52 368.64 2037.57 365.24C2034.62 361.84 2033.04 358.213 2032.81 354.36L2032.47 341.44C2024.54 351.64 2014.22 359.573 2001.53 365.24C1988.84 370.68 1975.92 373.4 1962.77 373.4C1951.21 373.4 1940.9 371.02 1931.83 366.26C1922.76 361.273 1915.62 354.7 1910.41 346.54C1905.42 338.153 1902.93 328.973 1902.93 319ZM2021.59 332.6C2026.8 326.48 2029.41 320.813 2029.41 315.6V289.76C2013.77 283.64 1997.45 280.58 1980.45 280.58C1963.9 280.58 1950.53 283.867 1940.33 290.44C1930.13 297.013 1925.03 305.967 1925.03 317.3C1925.03 327.047 1928.77 335.887 1936.25 343.82C1943.96 351.753 1954.61 355.72 1968.21 355.72C1979.32 355.72 1989.63 353.567 1999.15 349.26C2008.9 344.953 2016.38 339.4 2021.59 332.6ZM2272.73 130.3H2295.17L2329.17 215.98L2363.51 130.3H2386.29L2344.13 233.32L2390.37 342.46L2477.75 128.6H2503.59L2401.25 370H2380.17L2329.51 250.66L2278.51 370H2257.77L2155.77 128.6H2181.27L2268.99 342.46L2314.89 233.32L2272.73 130.3ZM2586.39 373.4C2569.39 373.4 2554.2 369.207 2540.83 360.82C2527.45 352.433 2516.91 341.213 2509.21 327.16C2501.5 313.107 2497.65 297.693 2497.65 280.92C2497.65 264.373 2501.39 249.187 2508.87 235.36C2516.57 221.533 2527.11 210.54 2540.49 202.38C2553.86 193.993 2569.05 189.8 2586.05 189.8C2603.5 189.8 2618.8 193.993 2631.95 202.38C2645.09 210.767 2655.29 221.873 2662.55 235.7C2670.03 249.3 2673.77 264.26 2673.77 280.58C2673.77 284.207 2673.65 287.267 2673.43 289.76H2521.79C2522.92 302.453 2526.55 313.787 2532.67 323.76C2538.79 333.507 2546.61 341.327 2556.13 347.22C2565.65 352.887 2576.07 355.72 2587.41 355.72C2598.97 355.72 2609.85 352.773 2620.05 346.88C2630.25 340.987 2637.5 333.28 2641.81 323.76L2661.87 329.2C2658.24 337.813 2652.57 345.52 2644.87 352.32C2637.39 358.893 2628.66 364.107 2618.69 367.96C2608.71 371.587 2597.95 373.4 2586.39 373.4ZM2521.11 273.1H2652.01C2651.1 260.407 2647.59 249.187 2641.47 239.44C2635.35 229.467 2627.53 221.76 2618.01 216.32C2608.49 210.653 2597.95 207.82 2586.39 207.82C2574.83 207.82 2564.29 210.653 2554.77 216.32C2545.25 221.76 2537.43 229.467 2531.31 239.44C2525.41 249.187 2522.01 260.407 2521.11 273.1ZM2796.14 373.4C2782.31 373.4 2769.5 369.887 2757.72 362.86C2745.93 355.607 2736.75 346.54 2730.18 335.66V370H2709.44V121.8H2732.56V229.92C2740.49 217.907 2750.01 208.273 2761.12 201.02C2772.22 193.54 2785.14 189.8 2799.88 189.8C2812.34 189.8 2823.45 192.407 2833.2 197.62C2843.17 202.833 2851.67 209.86 2858.7 218.7C2865.72 227.313 2871.05 237.173 2874.68 248.28C2878.3 259.16 2880.12 270.38 2880.12 281.94C2880.12 298.487 2876.38 313.673 2868.9 327.5C2861.64 341.327 2851.67 352.433 2838.98 360.82C2826.28 369.207 2812 373.4 2796.14 373.4ZM2790.7 353C2803.62 353 2814.95 349.6 2824.7 342.8C2834.67 336 2842.49 327.273 2848.16 316.62C2853.82 305.74 2856.66 294.18 2856.66 281.94C2856.66 269.473 2853.94 257.8 2848.5 246.92C2843.28 236.04 2835.92 227.2 2826.4 220.4C2816.88 213.6 2805.88 210.2 2793.42 210.2C2779.59 210.2 2767.35 214.62 2756.7 223.46C2746.27 232.3 2738.22 242.613 2732.56 254.4V309.48C2733.69 317.64 2737.43 325.007 2743.78 331.58C2750.12 338.153 2757.6 343.367 2766.22 347.22C2774.83 351.073 2782.99 353 2790.7 353ZM3074.88 128.6H3094.94L3195.24 370H3170.08L3138.8 294.52H3030.34L2999.4 370H2973.9L3074.88 128.6ZM3133.36 275.82L3084.74 156.48L3035.44 275.82H3133.36ZM3291.16 372.38C3278.92 372.38 3267.7 369.887 3257.5 364.9C3247.53 359.913 3238.8 353.227 3231.32 344.84C3224.07 336.227 3218.4 326.48 3214.32 315.6C3210.24 304.72 3208.2 293.5 3208.2 281.94C3208.2 265.393 3211.71 250.207 3218.74 236.38C3225.77 222.327 3235.4 211.107 3247.64 202.72C3260.11 194.107 3274.39 189.8 3290.48 189.8C3305.67 189.8 3318.81 193.653 3329.92 201.36C3341.25 209.067 3350.77 218.587 3358.48 229.92V192.86H3379.22V370.68C3379.22 387.227 3375.25 401.053 3367.32 412.16C3359.39 423.267 3348.85 431.653 3335.7 437.32C3322.55 442.987 3308.16 445.82 3292.52 445.82C3272.12 445.82 3255.69 442.193 3243.22 434.94C3230.98 427.687 3220.89 417.94 3212.96 405.7L3227.24 394.48C3234.27 405.587 3243.56 413.86 3255.12 419.3C3266.91 424.74 3279.37 427.46 3292.52 427.46C3304.08 427.46 3314.62 425.307 3324.14 421C3333.89 416.92 3341.59 410.687 3347.26 402.3C3353.15 393.913 3356.1 383.373 3356.1 370.68V335.66C3349.3 346.767 3340.01 355.72 3328.22 362.52C3316.43 369.093 3304.08 372.38 3291.16 372.38ZM3297.62 353C3306.91 353 3315.75 350.847 3324.14 346.54C3332.53 342.233 3339.55 336.793 3345.22 330.22C3351.11 323.42 3354.74 316.393 3356.1 309.14V254.4C3352.7 245.787 3347.83 238.193 3341.48 231.62C3335.13 224.82 3327.88 219.607 3319.72 215.98C3311.56 212.127 3303.29 210.2 3294.9 210.2C3281.75 210.2 3270.42 213.827 3260.9 221.08C3251.61 228.107 3244.35 237.173 3239.14 248.28C3234.15 259.16 3231.66 270.493 3231.66 282.28C3231.66 294.973 3234.61 306.76 3240.5 317.64C3246.39 328.293 3254.33 336.907 3264.3 343.48C3274.27 349.827 3285.38 353 3297.62 353ZM3506.78 373.4C3489.78 373.4 3474.59 369.207 3461.22 360.82C3447.84 352.433 3437.3 341.213 3429.6 327.16C3421.89 313.107 3418.04 297.693 3418.04 280.92C3418.04 264.373 3421.78 249.187 3429.26 235.36C3436.96 221.533 3447.5 210.54 3460.88 202.38C3474.25 193.993 3489.44 189.8 3506.44 189.8C3523.89 189.8 3539.19 193.993 3552.34 202.38C3565.48 210.767 3575.68 221.873 3582.94 235.7C3590.42 249.3 3594.16 264.26 3594.16 280.58C3594.16 284.207 3594.04 287.267 3593.82 289.76H3442.18C3443.31 302.453 3446.94 313.787 3453.06 323.76C3459.18 333.507 3467 341.327 3476.52 347.22C3486.04 352.887 3496.46 355.72 3507.8 355.72C3519.36 355.72 3530.24 352.773 3540.44 346.88C3550.64 340.987 3557.89 333.28 3562.2 323.76L3582.26 329.2C3578.63 337.813 3572.96 345.52 3565.26 352.32C3557.78 358.893 3549.05 364.107 3539.08 367.96C3529.1 371.587 3518.34 373.4 3506.78 373.4ZM3441.5 273.1H3572.4C3571.49 260.407 3567.98 249.187 3561.86 239.44C3555.74 229.467 3547.92 221.76 3538.4 216.32C3528.88 210.653 3518.34 207.82 3506.78 207.82C3495.22 207.82 3484.68 210.653 3475.16 216.32C3465.64 221.76 3457.82 229.467 3451.7 239.44C3445.8 249.187 3442.4 260.407 3441.5 273.1ZM3778.75 370H3755.63V271.06C3755.63 250.207 3752.45 235.02 3746.11 225.5C3739.99 215.753 3730.47 210.88 3717.55 210.88C3708.48 210.88 3699.53 213.147 3690.69 217.68C3681.85 221.987 3674.03 227.993 3667.23 235.7C3660.65 243.18 3655.89 251.793 3652.95 261.54V370H3629.83V192.86H3650.91V232.98C3657.93 220.06 3668.25 209.633 3681.85 201.7C3695.45 193.767 3710.18 189.8 3726.05 189.8C3739.19 189.8 3749.62 192.973 3757.33 199.32C3765.03 205.44 3770.47 214.28 3773.65 225.84C3777.05 237.173 3778.75 250.66 3778.75 266.3V370ZM3904.89 373.4C3887.66 373.4 3872.36 369.207 3858.99 360.82C3845.62 352.207 3835.08 340.987 3827.37 327.16C3819.66 313.107 3815.81 297.693 3815.81 280.92C3815.81 264.147 3819.55 248.96 3827.03 235.36C3834.51 221.533 3844.94 210.54 3858.31 202.38C3871.68 193.993 3887.1 189.8 3904.55 189.8C3921.1 189.8 3935.6 193.653 3948.07 201.36C3960.76 208.84 3970.28 219.04 3976.63 231.96L3954.19 239.1C3949.2 230.033 3942.18 223.007 3933.11 218.02C3924.27 212.807 3914.41 210.2 3903.53 210.2C3891.52 210.2 3880.64 213.26 3870.89 219.38C3861.37 225.5 3853.66 234 3847.77 244.88C3842.1 255.533 3839.27 267.547 3839.27 280.92C3839.27 294.293 3842.22 306.42 3848.11 317.3C3854 328.18 3861.82 336.907 3871.57 343.48C3881.32 349.827 3892.08 353 3903.87 353C3911.58 353 3919.06 351.64 3926.31 348.92C3933.56 346.2 3939.8 342.573 3945.01 338.04C3950.22 333.28 3953.74 328.18 3955.55 322.74L3978.33 329.54C3975.16 337.927 3969.94 345.52 3962.69 352.32C3955.44 358.893 3946.82 364.107 3936.85 367.96C3926.88 371.587 3916.22 373.4 3904.89 373.4ZM4022.2 424.4C4025.37 424.627 4028.43 424.74 4031.38 424.74C4034.32 424.967 4036.48 424.853 4037.84 424.4C4040.56 424.173 4043.05 422.587 4045.32 419.64C4047.81 416.92 4050.76 411.707 4054.16 404C4057.78 396.52 4062.66 385.187 4068.78 370L3991.6 192.86H4016.08L4081.02 346.2L4140.86 192.86H4163.98L4072.18 421.34C4069.68 427.913 4065.49 433.58 4059.6 438.34C4053.7 443.1 4045.88 445.593 4036.14 445.82C4034.1 446.047 4031.94 446.047 4029.68 445.82C4027.41 445.82 4024.92 445.593 4022.2 445.14V424.4Z" fill="black"/>
<path d="M475.297 158.048C488.803 152.238 494.915 136.306 487.241 123.765C462.075 82.6397 425.024 49.0718 380.276 27.2668C327.221 1.41421 266.526 -6.35445 208.226 5.24541C149.926 16.8453 97.5135 47.1189 59.6545 91.0605C21.7956 135.002 0.757853 189.98 0.0200853 246.903C-0.717681 303.826 18.8887 359.285 55.5972 404.11C92.3057 448.934 143.918 480.44 201.899 493.417C259.88 506.395 320.758 500.066 374.467 475.478C419.762 454.741 457.669 422.065 483.893 381.554C491.89 369.199 486.169 353.101 472.793 346.962L371.943 300.679C359.216 294.838 344.37 300.465 334.965 310.841C326.291 320.411 315.602 328.252 303.491 333.796C283.531 342.934 260.907 345.286 239.359 340.463C217.811 335.64 198.63 323.931 184.988 307.273C171.345 290.614 164.059 270.004 164.333 248.849C164.607 227.694 172.426 207.263 186.495 190.932C200.565 174.602 220.044 163.351 241.71 159.04C263.377 154.729 285.933 157.616 305.65 167.224C317.594 173.044 328.063 181.119 336.479 190.871C345.638 201.483 360.359 207.485 373.237 201.946L475.297 158.048Z" fill="#010101"/>
<path d="M203.992 274.217C200.468 275.733 198.874 279.89 200.876 283.162C207.442 293.892 217.109 302.65 228.784 308.339C242.626 315.084 258.462 317.111 273.673 314.084C288.883 311.058 302.558 303.159 312.436 291.695C322.313 280.23 327.802 265.886 327.995 251.035C328.187 236.183 323.072 221.713 313.494 210.018C303.917 198.323 290.451 190.103 275.323 186.718C260.196 183.332 244.312 184.983 230.299 191.398C218.482 196.808 208.591 205.334 201.749 215.903C199.663 219.127 201.156 223.327 204.645 224.929L230.958 237.004C234.278 238.528 238.152 237.06 240.606 234.353C242.869 231.856 245.658 229.81 248.817 228.364C254.025 225.979 259.928 225.366 265.55 226.624C271.172 227.883 276.176 230.937 279.736 235.284C283.295 239.63 285.196 245.007 285.125 250.527C285.053 256.046 283.013 261.377 279.342 265.638C275.671 269.898 270.589 272.834 264.936 273.959C259.283 275.083 253.398 274.33 248.254 271.823C245.138 270.305 242.406 268.198 240.211 265.654C237.821 262.885 233.98 261.319 230.62 262.764L203.992 274.217Z" fill="black"/>
</svg>
